<mxfile host="app.diagrams.net" modified="2020-08-11T08:35:28.550Z" agent="5.0 (Macintosh; Intel Mac OS X 10_15_6) AppleWebKit/537.36 (KHTML, like Gecko) Chrome/84.0.4147.105 Safari/537.36" etag="ag7CeOGY3SlTFSQMKd41" version="13.6.2" type="github">
  <diagram id="AYsMSKMuVJFIzUdnK_c5" name="Page-1">
    <mxGraphModel dx="1326" dy="771" grid="1" gridSize="10" guides="1" tooltips="1" connect="1" arrows="1" fold="1" page="1" pageScale="1" pageWidth="827" pageHeight="1169" math="0" shadow="0">
      <root>
        <mxCell id="0" />
        <mxCell id="1" parent="0" />
        <mxCell id="VnXZVUwvl1WTGna6608H-1" value="ff" style="whiteSpace=wrap;html=1;aspect=fixed;" vertex="1" parent="1">
          <mxGeometry x="140" y="110" width="80" height="80" as="geometry" />
        </mxCell>
        <mxCell id="VnXZVUwvl1WTGna6608H-2" value="" style="aspect=fixed;html=1;points=[];align=center;image;fontSize=12;image=img/lib/mscae/HDInsight.svg;" vertex="1" parent="1">
          <mxGeometry x="350" y="230" width="50" height="48" as="geometry" />
        </mxCell>
      </root>
    </mxGraphModel>
  </diagram>
</mxfile>
